<?xml version="1.0" encoding="UTF-8"?><svg id="Layer_2" xmlns="http://www.w3.org/2000/svg" viewBox="0 0 548.41 89.31"><defs><style>.cls-1{stroke-width:0px;}</style></defs><g id="art"><path class="cls-1" d="m42.53,0c-.33,0-.65.26-1.04.39-.65.2-1.43.2-2.67.26-1.5.06-14.69.06-17.16.06-3.38,0-6.37-.2-9.36-.2-.98,0-1.5.13-1.5.65,0,.39.46.52,1.1.52.91,0,2.02.06,2.54.19,2.15.46,2.67,1.5,2.79,3.71.13,2.08.13,3.9.13,13.78v11.44c0,6.24,0,11.12-.32,13.84-.26,1.89-.58,3.32-1.89,3.58-.58.13-1.36.26-2.34.26-.71,0-.97.19-.97.52,0,.52.46.65,1.36.65,2.47,0,6.57-.2,8.26-.2s5.79.2,9.88.2c.98,0,1.43-.2,1.43-.65,0-.33-.26-.52-1.11-.52-.91,0-2.34-.13-3.25-.26-1.95-.26-2.34-1.69-2.54-3.58-.33-2.73-.33-7.6-.33-13.84v-5.27c0-.46.13-.58.46-.58,1.11,0,8,0,9.62.2,2.01.26,2.99,1.43,3.31,2.34.26.78.39,1.56.39,2.01s.13.91.52.91c.65,0,.65-.65.65-1.23,0-.46.13-3.45.26-4.75.2-2.01.52-3.64.52-4.03s-.13-.59-.39-.59c-.39,0-.52.26-.84.65-.91,1.24-1.95,1.24-5.72,1.24-2.34,0-6.57.06-8.32.06-.39,0-.46-.19-.46-.58V4.94c0-.71.2-.91.58-.91,1.95.06,7.74.13,10.01.2,2.47.06,3.83,1.04,4.29,1.95.39.91.39,1.95.39,2.47.06.71.19,1.04.65,1.04s.58-.39.65-.91c.13-.78.26-4.62.33-5.27.19-1.69.52-2.47.52-2.92,0-.33-.2-.58-.46-.58Z"/><path class="cls-1" d="m92.9,7.87c-2.34,0-5.92.2-6.7.2-.2,0-3.83-.2-6.76-.2-.91,0-1.23.2-1.23.58s.33.58.97.58c.78.07,1.62.13,2.08.26,1.89.33,2.21,1.24,2.34,3.12.07,1.76.2,3.12.2,11.44v6.89c0,5.66-.06,10.79-3.25,13.78-2.21,2.15-5.2,2.79-7.61,2.79-1.82,0-4.35-.19-6.83-2.08-2.92-2.21-4.48-5.52-4.48-13.52v-7.87c0-8.06,0-9.68.13-11.44.06-1.88.52-2.86,2.08-3.12.65-.13,1.1-.19,1.69-.26.58,0,.98-.2.98-.58s-.39-.58-1.3-.58c-2.02,0-6.24.2-7.48.2-1.5,0-5.46-.2-8.39-.2-.91,0-1.37.13-1.37.52s.39.65,1.04.65c.78.07,1.82.13,2.34.26,1.75.39,2.14,1.24,2.27,2.99.13,1.82.13,3.12.13,11.57v8.13c0,8.06,2.21,12.09,5.13,14.56,4.03,3.51,9.49,3.83,12.87,3.83,3.77,0,7.93-.65,11.9-3.9,4.94-4.03,5.53-10.6,5.53-16.77v-5.85c0-8.32.06-9.75.2-11.5.13-1.95.52-2.79,2.01-3.06.71-.19,1.04-.19,1.69-.26.71,0,1.04-.2,1.04-.58s-.39-.58-1.24-.58Z"/><path class="cls-1" d="m130.54,40.5c-.46,0-.52.52-.65,1.04-.19,1.37-.91,2.86-1.69,3.58-1.5,1.37-3.71,1.43-6.7,1.43-4.55,0-5.98-.39-6.89-1.3-1.17-.97-1.17-4.81-1.17-11.63v-9.62c0-8.58,0-9.81.13-11.57.13-1.95.58-2.86,2.15-3.12.71-.19,1.5-.19,2.14-.26.78,0,1.11-.2,1.11-.58s-.33-.58-1.24-.58c-2.21,0-6.89.2-8.12.2-1.69,0-5.2-.2-7.93-.2-.91,0-1.37.2-1.37.58s.39.58,1.04.58c.72.07,1.5.13,1.95.26,1.75.39,2.21,1.24,2.34,3.06.13,1.75.13,3.05.13,11.5v9.75c0,4.75,0,8.91-.26,11.18-.19,2.15-.58,3.19-1.95,3.51-.46.13-1.1.13-1.82.2-.65.06-.98.32-.98.58,0,.39.46.58,1.24.58,2.67,0,5.07-.2,7.41-.2,6.11,0,11.38.33,17.16.33,2.86,0,3.12-.2,3.51-1.5.46-1.56.97-5.98.97-6.7,0-.65-.06-1.11-.52-1.11Z"/><path class="cls-1" d="m211.27,48.49c-.58,0-1.56,0-2.15-.13-1.36-.26-2.99-1.1-5.07-5.98-3.64-8.32-13.26-30.49-14.37-33.67-.65-1.43-.97-2.01-1.5-2.01-.71,0-1.36,1.24-2.54,4.29l-13.78,32.57c-1.5,3.77-2.41,4.55-6.5,4.94-.02,0-.04,0-.06,0,.02-.06.04-.13.06-.2.46-1.56.97-5.98.97-6.7,0-.65-.06-1.11-.52-1.11s-.52.52-.65,1.04c-.19,1.37-.91,2.86-1.69,3.58-1.5,1.37-3.71,1.43-6.7,1.43-4.55,0-5.98-.39-6.89-1.3-1.17-.97-1.17-4.81-1.17-11.63v-9.62c0-8.58,0-9.81.13-11.57.13-1.95.58-2.86,2.15-3.12.71-.19,1.5-.19,2.14-.26.78,0,1.11-.2,1.11-.58s-.33-.58-1.24-.58c-2.21,0-6.89.2-8.12.2-1.69,0-5.2-.2-7.93-.2-.91,0-1.37.2-1.37.58s.39.58,1.04.58c.72.07,1.5.13,1.95.26,1.75.39,2.21,1.24,2.34,3.06.13,1.75.13,3.05.13,11.5v9.75c0,4.75,0,8.91-.26,11.18-.19,2.15-.58,3.19-1.95,3.51-.46.13-1.1.13-1.82.2-.65.06-.98.32-.98.58,0,.39.46.58,1.24.58,2.67,0,5.07-.2,7.41-.2,2.62,0,5.25.06,7.87.14,2.54.07,5.09.15,7.63.18,2.73.03,5.47.02,8.19-.1,1.37-.06,2.76-.22,4.13-.22,2.01,0,4.35.2,6.37.2.58,0,1.04-.13,1.04-.58,0-.26-.2-.52-.98-.52-1.23,0-3.25-.06-3.25-1.69,0-.65.33-2.01.85-3.38l2.86-7.08c.13-.33.26-.46.52-.46h12.87c.26,0,.46.13.52.39l4.42,10.99c.39.78-.07.98-.65,1.17-.32.13-.58.26-.58.52,0,.33.39.46.98.52,4.09.26,10.92.13,13.65.13.84,0,1.1-.2,1.1-.58,0-.33-.26-.58-.97-.58Zm-19.7-15.8h-10.34c-.26,0-.33-.13-.26-.33l5.13-13.26c.26-.65.46-.52.65,0l5.07,13.26c.06.2.06.33-.26.33Z"/><path class="cls-1" d="m275.61,7.87c-3.77,0-7.08.2-8.97.2-1.75,0-5.66-.2-8.39-.2-.84,0-1.24.13-1.24.52s.33.58.98.58l2.21.19c1.95.2,2.34,1.37,2.47,3.19.13,1.75.13,3.18.13,11.5v9.75c0,8.71.26,14.3-1.95,14.69-1.31.24-2.67.23-4,.16-.25-.01-.51-.03-.76-.06-.65-.06-1.3-.24-1.91-.46-.69-.25-1.34-.59-1.95-.98-.92-.6-1.74-1.33-2.51-2.11-.1-.11-.21-.21-.31-.32-3.38-3.45-7.41-8.58-12.22-14.56,5.66-4.22,7.61-7.93,7.61-12.09,0-3.77-2.41-6.57-4.23-7.74-2.92-1.89-6.76-2.28-10.66-2.28-1.95,0-6.57.2-8.32.2-1.11,0-5.07-.2-8-.2-.85,0-1.24.2-1.24.58s.33.58.98.58c.71.07,1.49.13,2.21.26,1.75.33,2.27,1.17,2.4,3.12.13,1.76.13,2.99.13,11.44v9.75c0,5.13,0,9.29-.33,11.57-.13,1.69-.52,2.86-1.62,3.12-.52.13-1.24.13-2.08.2-.65,0-.91.32-.91.58,0,.39.39.58,1.1.58,2.28,0,6.24-.2,7.22-.2.84,0,5.39.2,8.84.2.71,0,1.11-.26,1.11-.65,0-.26-.2-.52-.71-.52-.78-.07-1.95-.07-2.73-.26-1.75-.19-2.14-1.43-2.28-3.05-.26-2.28-.26-6.11-.26-11.12v-1.17c0-.33.2-.46.46-.46l4.62.13c.39,0,.71.06.91.33.84.97,3.25,4.42,5.59,7.67,2.99,4.09,5.14,6.63,7.41,7.87,1.62.84,3.25,1.24,7.02,1.24h5.46s.03,0,.05,0c.56,0,1.22,0,2.02,0,2.41,0,5.92-.2,7.48-.2,2.79,0,7.93.65,12.09.65,10.73,0,16.32-3.9,18.98-6.5,3.18-3.18,6.24-8.45,6.24-15.34s-2.67-11.25-5.53-14.04c-6.11-6.11-14.95-6.37-22.62-6.37Zm-41.34,20.8c-.98.71-1.89.97-3.97.97-1.5,0-3.18-.19-4.35-.65-.39-.13-.52-.39-.52-.91V11.77c0-.46.13-.65.46-.78.52-.2,1.56-.26,2.92-.26,3.25,0,8.65,2.08,8.65,9.95,0,4.42-1.56,6.83-3.18,8Zm56.68,14.63c-3.38,2.92-6.96,3.96-12.42,3.96-4.16,0-6.57-1.11-7.22-2.15-.58-.91-.65-2.6-.71-4.16-.06-1.04-.13-5.13-.13-10.99v-6.83c0-11.31.13-11.44.71-11.9.39-.33,2.47-.52,3.64-.52,4.29,0,10.46.78,15.41,5.59,2.47,2.47,5.33,6.83,5.33,13.46,0,5.66-1.04,10.53-4.62,13.52Z"/><path class="cls-1" d="m356.21,21.65c3.58-2.86,6.63-6.04,6.63-11.38,0-3.45-2.08-9.75-13.85-9.75-2.21,0-4.75.2-7.93.2-1.3,0-5.39-.2-8.84-.2-.98,0-1.43.13-1.43.58s.39.59,1.11.59c.91,0,2.01.06,2.54.19,2.14.46,2.67,1.5,2.79,3.71.13,2.08.13,3.9.13,13.78v11.44c0,5.98,0,11.12-.33,13.84-.26,1.89-.52,3.12-1.75,3.51-.58.19-1.5.33-2.47.33-.78,0-1.04.19-1.04.52,0,.46.46.65,1.3.65,2.92,0,5.59-.2,8.19-.2,3.45,0,6.44.39,9.43.39,11.96,0,17.36-7.21,17.36-14.17,0-7.61-6.5-12.22-11.83-14.04Zm-11.05-17.23c0-.71.13-.97.58-1.1.65-.13,1.23-.13,2.14-.13,5.59,0,8.13,5.72,8.13,10.08,0,3.18-.98,5.53-2.67,6.89-1.11.98-2.54,1.24-4.68,1.24-1.5,0-2.47-.07-3.05-.2-.26-.06-.46-.19-.46-.71V4.42Zm7.02,42.51c-1.5,0-2.99-.07-4.75-.78-2.08-.84-2.27-1.95-2.27-6.24v-15.41c0-.33.13-.46.39-.46.98,0,1.62,0,2.79.07,2.54.13,4.03.58,5.4,1.56,4.94,3.45,6.31,8.91,6.31,12.94,0,6.76-4.94,8.32-7.87,8.32Z"/><path class="cls-1" d="m398.98,7.08c-17.1,0-23.6,11.96-23.6,21.71s6.76,21.58,23.08,21.58c14.63,0,23.53-9.95,23.53-22.62,0-11.9-8.71-20.67-23.01-20.67Zm1.75,40.24c-10.79,0-16.97-9.1-16.97-20.41,0-13.65,7.15-16.9,13.52-16.9,9.49,0,16.25,8.06,16.25,19.83,0,15.86-8.84,17.49-12.81,17.49Z"/><path class="cls-1" d="m468.79,48.49c-.58,0-1.56,0-2.15-.13-1.36-.26-2.99-1.1-5.07-5.98-3.64-8.32-13.26-30.49-14.37-33.67-.65-1.43-.97-2.01-1.5-2.01-.71,0-1.36,1.24-2.54,4.29l-13.78,32.57c-1.5,3.77-2.41,4.55-6.5,4.94-.46,0-.78.26-.78.58,0,.46.33.58,1.04.58,2.99,0,6.24-.2,6.89-.2,2.01,0,4.35.2,6.37.2.58,0,1.04-.13,1.04-.58,0-.26-.2-.52-.98-.52-1.23,0-3.25-.06-3.25-1.69,0-.65.33-2.01.85-3.38l2.86-7.08c.13-.33.26-.46.52-.46h12.87c.26,0,.46.13.52.39l4.42,10.99c.39.78-.07.98-.65,1.17-.32.13-.58.26-.58.52,0,.33.39.46.98.52,4.09.26,10.92.13,13.65.13.84,0,1.1-.2,1.1-.58,0-.33-.26-.58-.97-.58Zm-19.7-15.8h-10.34c-.26,0-.33-.13-.26-.33l5.13-13.26c.26-.65.46-.52.65,0l5.07,13.26c.06.2.06.33-.26.33Z"/><path class="cls-1" d="m506.3,7.48c-.33,0-.78.13-1.62.26-.84.13-2.08.33-3.9.33h-23.01c-1.95,0-4.29-.13-5.85-.33-1.43-.13-1.95-.65-2.41-.65-.33,0-.52.39-.65,1.17-.13.72-1.17,5.33-1.23,6.5,0,.65.13.97.52.97.33,0,.52-.26.65-.65.26-.65.39-1.1.78-1.82.78-1.43,1.75-1.69,5.07-1.95,2.6-.2,6.89-.2,9.04-.2v22.49c0,5.13,0,9.29-.26,11.63-.19,1.62-.52,2.8-1.75,3.06-.52.13-1.17.13-1.95.2-.71,0-.97.26-.97.52,0,.39.39.65,1.17.65,2.21,0,6.17-.2,7.48-.2,1.43,0,5.39.2,9.17.2.78,0,1.17-.26,1.17-.65,0-.26-.33-.52-.97-.52-.85-.07-2.02-.13-2.8-.26-1.75-.19-2.08-1.43-2.27-2.92-.26-2.41-.26-6.76-.26-11.7V11.12c3.58.07,5.98.13,7.54.26,4.81.07,6.17,1.56,6.3,3.06,0,.26.07.52.07.71.06.78.13,1.11.58,1.11.39,0,.52-.33.58-.91,0-1.43.26-5.46.26-6.57,0-.98-.06-1.3-.46-1.3Z"/><path class="cls-1" d="m527.75,24.31l-1.82-1.23c-4.68-3.19-5.85-5.33-5.85-7.74,0-3.19,2.47-5.53,6.76-5.53,3.71,0,5.53,1.43,6.5,2.92.85,1.24,1.24,2.79,1.3,3.51.06.71.26,1.1.65,1.1.46,0,.65-.46.65-1.69,0-4.42.26-5.98.26-6.89,0-.39-.13-.65-.65-.71-.65-.07-1.43-.26-2.34-.39-1.62-.26-3.18-.58-5.79-.58-8.12,0-13.39,4.55-13.39,10.66,0,4.55,2.08,8.26,8.52,13.13l2.73,2.08c4.81,3.51,5.59,5.98,5.59,8.58,0,2.86-2.34,6.05-7.54,6.05-3.71,0-7.28-1.75-8.45-5.98-.33-.91-.33-1.88-.39-2.6-.06-.46-.13-.91-.65-.91-.46,0-.65.52-.71,1.43-.07.97-.26,4.23-.26,7.54,0,1.11.2,1.5,1.11,1.88,2.47,1.04,5.07,1.43,8.58,1.43,2.99,0,6.31-.46,9.23-2.21,4.16-2.6,5.59-6.44,5.59-9.82,0-5.27-2.34-9.1-9.62-14.04Z"/><polygon class="cls-1" points="544.02 61.32 548.41 54.41 543.31 54.41 539.87 59.82 537.96 59.82 10.45 59.82 8.54 59.82 5.1 54.41 0 54.41 4.39 61.32 0 68.23 5.1 68.23 8.54 62.82 10.45 62.82 537.96 62.82 539.87 62.82 543.31 68.23 548.41 68.23 544.02 61.32"/><path class="cls-1" d="m51.31,72.41c-.09,0-.26.04-.59.11-.33.04-.8.11-1.5.11h-8.61c-.72,0-1.54-.04-2.17-.11-.54-.04-.76-.26-.93-.26-.13,0-.2.13-.26.41-.04.17-.46,2.15-.46,2.5,0,.24.04.35.2.35.13,0,.2-.09.24-.26.04-.17.15-.43.37-.76.33-.48.85-.59,2.11-.63,1.07-.02,2.41-.07,3.24-.09v8.92c0,2,0,3.72-.11,4.63-.07.63-.2,1.11-.63,1.2-.2.04-.46.09-.78.09-.26,0-.35.07-.35.17,0,.15.15.22.44.22.87,0,2.24-.07,2.74-.07.61,0,1.98.07,3.41.07.24,0,.41-.07.41-.22,0-.11-.11-.17-.35-.17-.33,0-.8-.04-1.11-.09-.65-.09-.78-.57-.85-1.17-.11-.94-.11-2.65-.11-4.65v-8.92c1.28.02,2.17.04,2.74.07,1.94.04,2.52.65,2.57,1.22,0,.06.02.17.02.24.02.33.06.44.24.44.13,0,.17-.13.2-.35,0-.57.07-2.07.07-2.52,0-.33-.02-.46-.17-.46Z"/><path class="cls-1" d="m81.21,88.61c-.2,0-.52,0-.72-.04-.46-.09-1-.37-1.7-2-1.22-2.78-4.44-10.2-4.8-11.26-.22-.48-.33-.67-.5-.67-.24,0-.46.41-.85,1.44l-4.61,10.89c-.32.81-.56,1.2-1.05,1.42-.38-.16-.87-.45-1.47-1.09-1.13-1.15-2.48-2.87-4.09-4.87,1.89-1.41,2.54-2.65,2.54-4.04,0-1.26-.8-2.2-1.41-2.59-.98-.63-2.26-.76-3.57-.76-.65,0-2.2.07-2.78.07-.37,0-1.7-.07-2.67-.07-.28,0-.41.07-.41.2s.11.2.33.2c.24.02.5.04.74.09.59.11.76.39.8,1.04.04.59.04,1,.04,3.83v3.26c0,1.72,0,3.11-.11,3.87-.04.57-.17.96-.54,1.04-.17.04-.41.04-.7.07-.22,0-.3.11-.3.2,0,.13.13.2.37.2.76,0,2.09-.07,2.41-.07.28,0,1.8.07,2.96.07.24,0,.37-.09.37-.22,0-.09-.07-.17-.24-.17-.26-.02-.65-.02-.91-.09-.59-.07-.72-.48-.76-1.02-.09-.76-.09-2.04-.09-3.72v-.39c0-.11.07-.15.15-.15l1.54.04c.13,0,.24.02.3.11.28.33,1.09,1.48,1.87,2.57,1,1.37,1.72,2.22,2.48,2.63.55.3,1.17.37,1.78.4.83.04,1.67,0,2.5-.04.75-.03,1.51.05,2.27.05.2,0,.35-.04.35-.2,0-.09-.07-.17-.33-.17-.41,0-1.09-.02-1.09-.57,0-.22.11-.67.28-1.13l.96-2.37c.04-.11.09-.15.17-.15h4.3c.09,0,.15.04.17.13l1.48,3.67c.13.26-.02.33-.22.39-.11.04-.2.09-.2.17,0,.11.13.15.33.17,1.37.09,3.65.04,4.57.04.28,0,.37-.07.37-.2,0-.11-.09-.2-.33-.2Zm-20.77-6.63c-.33.24-.63.33-1.33.33-.5,0-1.07-.07-1.46-.22-.13-.04-.17-.13-.17-.3v-5.46c0-.15.04-.22.15-.26.17-.07.52-.09.98-.09,1.09,0,2.89.7,2.89,3.33,0,1.48-.52,2.28-1.07,2.67Zm14.18,1.35h-3.46c-.09,0-.11-.04-.09-.11l1.72-4.44c.09-.22.15-.17.22,0l1.7,4.44c.02.07.02.11-.09.11Z"/><path class="cls-1" d="m87.98,75.02c-1.26,0-2.37.07-3,.07-.59,0-1.89-.07-2.8-.07-.28,0-.41.04-.41.17s.11.2.33.2l.74.06c.65.07.78.46.83,1.07.04.59.04,1.07.04,3.85v3.26c0,2.91.09,4.78-.65,4.91-.24.04-.46.07-.67.07s-.33.11-.33.2c0,.13.11.2.37.2.8,0,1.98-.07,2.5-.07.94,0,2.65.22,4.04.22,3.59,0,5.46-1.3,6.35-2.17,1.07-1.07,2.09-2.83,2.09-5.13s-.89-3.76-1.85-4.7c-2.04-2.04-5-2.13-7.57-2.13Zm5.13,11.85c-1.13.98-2.33,1.33-4.15,1.33-1.39,0-2.2-.37-2.41-.72-.2-.3-.22-.87-.24-1.39-.02-.35-.04-1.72-.04-3.67v-2.28c0-3.78.04-3.83.24-3.98.13-.11.83-.17,1.22-.17,1.43,0,3.5.26,5.15,1.87.83.83,1.78,2.28,1.78,4.5,0,1.89-.35,3.52-1.54,4.52Z"/><path class="cls-1" d="m105.95,88.61c-.28-.02-.54-.02-.83-.09-.57-.07-.72-.46-.76-.96-.09-.78-.11-2.2-.11-3.94v-3.26c0-2.83,0-3.26.06-3.85.04-.63.2-.96.72-1.04.22-.04.3-.04.5-.07.2,0,.3-.07.3-.22,0-.11-.11-.17-.37-.17-.74,0-2.02.07-2.46.07-.48,0-1.78-.07-2.54-.07-.3,0-.43.07-.43.17,0,.15.11.22.3.22.24.02.48.04.67.09.41.09.61.39.65,1,.04.61.04,1.04.04,3.87v3.26c0,1.8,0,3.2-.11,3.98-.04.52-.22.85-.59.93-.17.04-.33.04-.59.07-.24,0-.33.11-.33.2,0,.13.13.2.39.2.76,0,2.07-.07,2.43-.07.46,0,1.7.07,2.98.07.22,0,.37-.07.37-.2,0-.09-.09-.2-.33-.2Z"/><path class="cls-1" d="m120.56,74.89c-.11,0-.26.04-.54.09-.28.04-.7.11-1.3.11h-7.7c-.65,0-1.43-.04-1.96-.11-.48-.04-.65-.22-.8-.22-.11,0-.17.13-.22.39-.04.24-.39,1.78-.41,2.17,0,.22.04.33.17.33.11,0,.17-.09.22-.22.09-.22.13-.37.26-.61.26-.48.59-.57,1.7-.65.87-.07,2.3-.07,3.02-.07v7.52c0,1.72,0,3.11-.09,3.89-.07.54-.17.93-.59,1.02-.17.04-.39.04-.65.07-.24,0-.33.09-.33.17,0,.13.13.22.39.22.74,0,2.07-.07,2.5-.07.48,0,1.8.07,3.07.07.26,0,.39-.09.39-.22,0-.09-.11-.17-.33-.17-.28-.02-.67-.04-.94-.09-.59-.07-.7-.48-.76-.98-.09-.8-.09-2.26-.09-3.91v-7.52c1.2.02,2,.04,2.52.09,1.61.02,2.07.52,2.11,1.02,0,.09.02.17.02.24.02.26.04.37.2.37.13,0,.17-.11.2-.3,0-.48.09-1.83.09-2.2,0-.33-.02-.44-.15-.44Z"/><path class="cls-1" d="m128.5,88.61c-.28-.02-.54-.02-.83-.09-.57-.07-.72-.46-.76-.96-.09-.78-.11-2.2-.11-3.94v-3.26c0-2.83,0-3.26.06-3.85.04-.63.2-.96.72-1.04.22-.04.3-.04.5-.07.2,0,.3-.07.3-.22,0-.11-.11-.17-.37-.17-.74,0-2.02.07-2.46.07-.48,0-1.78-.07-2.54-.07-.3,0-.43.07-.43.17,0,.15.11.22.3.22.24.02.48.04.67.09.41.09.61.39.65,1,.04.61.04,1.04.04,3.87v3.26c0,1.8,0,3.2-.11,3.98-.04.52-.22.85-.59.93-.17.04-.33.04-.59.07-.24,0-.33.11-.33.2,0,.13.13.2.39.2.76,0,2.07-.07,2.43-.07.46,0,1.7.07,2.98.07.22,0,.37-.07.37-.2,0-.09-.09-.2-.33-.2Z"/><path class="cls-1" d="m139.01,74.76c-5.72,0-7.89,4-7.89,7.26s2.26,7.22,7.72,7.22c4.89,0,7.87-3.33,7.87-7.57,0-3.98-2.91-6.91-7.7-6.91Zm.59,13.46c-3.61,0-5.68-3.04-5.68-6.83,0-4.57,2.39-5.65,4.52-5.65,3.17,0,5.44,2.7,5.44,6.63,0,5.31-2.96,5.85-4.28,5.85Z"/><path class="cls-1" d="m164.52,75.02c-.91,0-1.7.07-1.93.07-.48,0-1.46-.07-2.41-.07-.26,0-.48.02-.48.17,0,.11.09.22.33.22.26.02.7.02.98.11.52.2.67.57.7,1.67l.17,8.04c-.35-.3-2.78-2.78-4.2-4.13-3.11-2.91-5.65-5.54-6-5.85-.33-.33-.5-.54-.7-.54-.22,0-.28.26-.28.67,0,2.43-.11,6.98-.15,10.89-.02,1.61-.11,2.09-.65,2.24-.26.07-.59.07-.83.09-.2,0-.3.09-.3.2,0,.17.17.2.41.2.93,0,1.94-.07,2.17-.07.5,0,1.26.07,2.39.07.26,0,.43-.07.43-.22,0-.11-.13-.17-.33-.17-.33-.02-.7-.02-1.02-.13-.39-.13-.61-.59-.65-2l-.2-7.54c.52.54,2.65,2.8,4.57,4.59,1.8,1.74,4.13,3.98,5.35,5.09.41.37.7.61.94.61.17,0,.28-.17.28-.67.07-3.87.11-8.72.2-11.5.02-1.04.2-1.41.76-1.57.2-.04.35-.04.54-.07.24,0,.33-.09.33-.2,0-.15-.17-.2-.41-.2Z"/><path class="cls-1" d="m180.66,88.61c-.2,0-.52,0-.72-.04-.46-.09-1-.37-1.7-2-1.22-2.78-4.44-10.2-4.81-11.26-.22-.48-.33-.67-.5-.67-.24,0-.46.41-.85,1.44l-4.61,10.89c-.5,1.26-.8,1.52-2.17,1.65-.15,0-.26.09-.26.2,0,.15.11.2.35.2,1,0,2.09-.07,2.3-.07.67,0,1.46.07,2.13.07.2,0,.35-.04.35-.2,0-.09-.06-.17-.33-.17-.41,0-1.09-.02-1.09-.57,0-.22.11-.67.28-1.13l.96-2.37c.04-.11.09-.15.17-.15h4.31c.09,0,.15.04.17.13l1.48,3.67c.13.26-.02.33-.22.39-.11.04-.2.09-.2.17,0,.11.13.15.33.17,1.37.09,3.65.04,4.57.04.28,0,.37-.07.37-.2,0-.11-.09-.2-.33-.2Zm-6.59-5.28h-3.46c-.09,0-.11-.04-.09-.11l1.72-4.44c.09-.22.15-.17.22,0l1.7,4.44c.02.07.02.11-.09.11Z"/><path class="cls-1" d="m191.43,85.94c-.15,0-.17.17-.22.35-.07.46-.3.96-.57,1.2-.5.46-1.24.48-2.24.48-1.52,0-2-.13-2.3-.43-.39-.33-.39-1.61-.39-3.89v-3.22c0-2.87,0-3.28.04-3.87.04-.65.2-.96.72-1.04.24-.07.5-.07.72-.09.26,0,.37-.07.37-.2s-.11-.2-.41-.2c-.74,0-2.3.07-2.72.07-.57,0-1.74-.07-2.65-.07-.3,0-.46.07-.46.2s.13.2.35.2c.24.02.5.04.65.09.59.13.74.41.78,1.02.04.59.04,1.02.04,3.85v3.26c0,1.59,0,2.98-.09,3.74-.06.72-.2,1.07-.65,1.17-.15.04-.37.04-.61.07-.22.02-.33.11-.33.2,0,.13.15.2.41.2.89,0,1.7-.07,2.48-.07,2.04,0,3.81.11,5.74.11.96,0,1.04-.06,1.17-.5.15-.52.33-2,.33-2.24,0-.22-.02-.37-.17-.37Z"/><path class="cls-1" d="m218.03,88.61c-.65-.04-1.63-.35-2.33-.76-.59-.35-1.57-.94-3.02-2.13,1.24-1.46,2.13-3.48,2.13-5.15,0-.26-.22-.39-.74-.44-1.22-.11-2.09-.15-2.61-.15-.17,0-.39.04-.39.22,0,.13.22.17.35.17.33.02.74.07,1.02.33.33.28.41.67.41,1,0,1.33-.61,2.74-1.04,3.35-.41-.37-3.09-2.78-3.83-3.63-1.74-1.94-3.61-3.67-3.61-5.72,0-1.85,1.41-2.48,2.33-2.48,1.22,0,1.98.46,2.41.98.48.57.63,1.26.63,1.83,0,.33.02.41.15.41s.22-.04.26-.37c.07-.33.24-2.07.24-2.78,0-.26,0-.44-.37-.57-.59-.24-1.57-.46-2.63-.46-3.78,0-5.31,2.28-5.28,4,.02.98.13,1.89,1.04,3.11-1.3.63-3.48,2.44-3.48,4.98,0,2.02,1.39,4.96,6.04,4.96,2.98,0,4.35-1.2,5.07-1.85,1.87,1.43,2.74,1.54,5.22,1.54h1.7c.48,0,.63-.07.63-.2,0-.15-.11-.17-.3-.2Zm-11.48-.7c-2.33,0-4.26-1.72-4.26-4.44,0-1.74.7-2.74,1.44-3.28,2.09,2.44,3.46,3.96,6.22,6.57-.46.44-1.72,1.15-3.39,1.15Z"/><path class="cls-1" d="m245.65,88.61c-.28,0-.72-.02-1.35-.22-.65-.2-.87-.83-1.07-2.2l-1.98-13.44c-.06-.46-.2-.67-.39-.67s-.3.17-.48.52l-5.91,12.42-5.94-12.26c-.28-.57-.41-.67-.59-.67s-.3.2-.37.57l-2.15,14.18c-.11.74-.28,1.59-.89,1.72-.33.07-.48.07-.65.07-.22,0-.35.04-.35.15,0,.2.17.24.39.24.7,0,1.74-.07,2.15-.07.39,0,1.37.07,2.28.07.33,0,.52-.04.52-.24,0-.11-.15-.15-.33-.15-.22,0-.52-.02-.91-.11-.37-.09-.65-.28-.65-.7,0-.35.02-.63.07-1.02l1.15-8.81c.76,1.63,2.13,4.52,2.33,4.98.26.61,1.98,3.94,2.5,4.94.35.65.57,1.09.76,1.09s.3-.2.8-1.22l4.81-10,1.33,9.7c.09.61.02.89-.11.93-.15.07-.24.13-.24.24,0,.13.13.2.63.24.87.07,3.87.13,4.41.13.3,0,.57-.07.57-.24,0-.13-.15-.15-.35-.15Z"/><path class="cls-1" d="m254.94,74.76c-5.72,0-7.89,4-7.89,7.26s2.26,7.22,7.72,7.22c4.89,0,7.87-3.33,7.87-7.57,0-3.98-2.91-6.91-7.7-6.91Zm.59,13.46c-3.61,0-5.68-3.04-5.68-6.83,0-4.57,2.39-5.65,4.52-5.65,3.17,0,5.44,2.7,5.44,6.63,0,5.31-2.96,5.85-4.28,5.85Z"/><path class="cls-1" d="m271.23,75.02c-1.26,0-2.37.07-3,.07-.59,0-1.89-.07-2.8-.07-.28,0-.41.04-.41.17s.11.2.33.2l.74.06c.65.07.78.46.83,1.07.04.59.04,1.07.04,3.85v3.26c0,2.91.09,4.78-.65,4.91-.24.04-.46.07-.67.07s-.33.11-.33.2c0,.13.11.2.37.2.8,0,1.98-.07,2.5-.07.94,0,2.65.22,4.04.22,3.59,0,5.46-1.3,6.35-2.17,1.07-1.07,2.09-2.83,2.09-5.13s-.89-3.76-1.85-4.7c-2.04-2.04-5-2.13-7.57-2.13Zm5.13,11.85c-1.13.98-2.33,1.33-4.15,1.33-1.39,0-2.2-.37-2.41-.72-.2-.3-.22-.87-.24-1.39-.02-.35-.04-1.72-.04-3.67v-2.28c0-3.78.04-3.83.24-3.98.13-.11.83-.17,1.22-.17,1.43,0,3.5.26,5.15,1.87.83.83,1.78,2.28,1.78,4.5,0,1.89-.35,3.52-1.54,4.52Z"/><path class="cls-1" d="m292.77,86.02c-.15,0-.2.11-.24.3-.15.78-.37,1.15-.87,1.39-.48.22-1.28.22-1.78.22-2,0-2.28-.28-2.33-1.57-.02-.57,0-2.09,0-2.72v-1.41c0-.11.02-.2.13-.2.48,0,2.3.02,2.7.07.76.06.98.35,1.09.76.04.22.04.33.07.5,0,.11.07.3.2.3.17,0,.2-.2.2-.35s.06-.93.06-1.3c.07-.89.15-1.3.15-1.44,0-.11-.04-.15-.13-.15s-.17.07-.3.24c-.17.2-.46.26-1,.3-.48.02-2.57.02-3.02.02-.11,0-.13-.07-.13-.2v-4.5c0-.13.04-.2.13-.2.43,0,2.39.04,2.76.09.94.11,1.11.3,1.24.65.11.24.11.52.11.61.02.24.07.35.2.35.17,0,.22-.2.22-.3.04-.57.07-.93.09-1.28.04-.78.17-1.04.17-1.17,0-.09-.02-.17-.13-.17-.09,0-.2.07-.3.09-.17.02-.5.07-.87.11-.35.02-4.33.02-4.91.02-.96,0-1.83-.07-2.74-.07-.3,0-.44.04-.44.17s.11.2.33.2c.26.02.57.02.74.06.59.13.74.37.78.98.04.61.04,1.11.04,3.94v3.26c0,1.59,0,3-.09,3.76-.06.65-.17,1.07-.56,1.15-.17.04-.41.04-.67.07-.26,0-.33.11-.33.2,0,.13.13.2.39.2.91,0,1.7-.07,2.48-.07,1.94,0,3.57.11,5.46.11.72,0,.89,0,1.02-.48.11-.37.26-1.7.26-2.17,0-.2,0-.37-.15-.37Z"/><path class="cls-1" d="m344.36,79.63c1.2-.96,2.22-2.02,2.22-3.8,0-1.15-.7-3.26-4.63-3.26-.74,0-1.59.07-2.65.07-.44,0-1.8-.07-2.96-.07-.33,0-.48.04-.48.2s.13.2.37.2c.3,0,.67.02.85.07.72.15.89.5.93,1.24.04.7.04,1.3.04,4.61v3.83c0,2,0,3.72-.11,4.63-.09.63-.17,1.04-.59,1.17-.2.06-.5.11-.83.11-.26,0-.35.07-.35.17,0,.15.15.22.43.22.98,0,1.87-.07,2.74-.07,1.15,0,2.15.13,3.15.13,4,0,5.81-2.41,5.81-4.74,0-2.54-2.17-4.09-3.96-4.7Zm-3.7-5.76c0-.24.04-.33.2-.37.22-.04.41-.04.72-.04,1.87,0,2.72,1.91,2.72,3.37,0,1.07-.33,1.85-.89,2.3-.37.33-.85.41-1.57.41-.5,0-.83-.02-1.02-.07-.09-.02-.15-.06-.15-.24v-5.37Zm2.35,14.22c-.5,0-1-.02-1.59-.26-.7-.28-.76-.65-.76-2.09v-5.15c0-.11.04-.15.13-.15.33,0,.54,0,.93.02.85.04,1.35.2,1.81.52,1.65,1.15,2.11,2.98,2.11,4.33,0,2.26-1.65,2.78-2.63,2.78Z"/><path class="cls-1" d="m358.67,74.76c-5.72,0-7.89,4-7.89,7.26s2.26,7.22,7.72,7.22c4.89,0,7.87-3.33,7.87-7.57,0-3.98-2.91-6.91-7.7-6.91Zm.59,13.46c-3.61,0-5.68-3.04-5.68-6.83,0-4.57,2.39-5.65,4.52-5.65,3.17,0,5.44,2.7,5.44,6.63,0,5.31-2.96,5.85-4.28,5.85Z"/><path class="cls-1" d="m382.14,88.61c-.2,0-.52,0-.72-.04-.46-.09-1-.37-1.7-2-1.22-2.78-4.44-10.2-4.81-11.26-.22-.48-.33-.67-.5-.67-.24,0-.46.41-.85,1.44l-4.61,10.89c-.5,1.26-.8,1.52-2.17,1.65-.15,0-.26.09-.26.2,0,.15.11.2.35.2,1,0,2.09-.07,2.3-.07.67,0,1.46.07,2.13.07.2,0,.35-.04.35-.2,0-.09-.06-.17-.33-.17-.41,0-1.09-.02-1.09-.57,0-.22.11-.67.28-1.13l.96-2.37c.04-.11.09-.15.17-.15h4.31c.09,0,.15.04.17.13l1.48,3.67c.13.26-.02.33-.22.39-.11.04-.2.09-.2.17,0,.11.13.15.33.17,1.37.09,3.65.04,4.57.04.28,0,.37-.07.37-.2,0-.11-.09-.2-.33-.2Zm-6.59-5.28h-3.46c-.09,0-.11-.04-.09-.11l1.72-4.44c.09-.22.15-.17.22,0l1.7,4.44c.02.07.02.11-.09.11Z"/><path class="cls-1" d="m394.62,74.89c-.11,0-.26.04-.54.09-.28.04-.7.11-1.3.11h-7.7c-.65,0-1.43-.04-1.96-.11-.48-.04-.65-.22-.8-.22-.11,0-.17.13-.22.39-.04.24-.39,1.78-.41,2.17,0,.22.04.33.17.33.11,0,.17-.09.22-.22.09-.22.13-.37.26-.61.26-.48.59-.57,1.7-.65.87-.07,2.3-.07,3.02-.07v7.52c0,1.72,0,3.11-.09,3.89-.07.54-.17.93-.59,1.02-.17.04-.39.04-.65.07-.24,0-.33.09-.33.17,0,.13.13.22.39.22.74,0,2.07-.07,2.5-.07.48,0,1.8.07,3.07.07.26,0,.39-.09.39-.22,0-.09-.11-.17-.33-.17-.28-.02-.67-.04-.94-.09-.59-.07-.7-.48-.76-.98-.09-.8-.09-2.26-.09-3.91v-7.52c1.2.02,2,.04,2.52.09,1.61.02,2.07.52,2.11,1.02,0,.09.02.17.02.24.02.26.04.37.2.37.13,0,.17-.11.2-.3,0-.48.09-1.83.09-2.2,0-.33-.02-.44-.15-.44Z"/><path class="cls-1" d="m411.57,79.63c1.2-.96,2.22-2.02,2.22-3.8,0-1.15-.7-3.26-4.63-3.26-.74,0-1.59.07-2.65.07-.44,0-1.8-.07-2.96-.07-.33,0-.48.04-.48.2s.13.2.37.2c.3,0,.67.02.85.07.72.15.89.5.93,1.24.04.7.04,1.3.04,4.61v3.83c0,2,0,3.72-.11,4.63-.09.63-.17,1.04-.59,1.17-.2.06-.5.11-.83.11-.26,0-.35.07-.35.17,0,.15.15.22.43.22.98,0,1.87-.07,2.74-.07,1.15,0,2.15.13,3.15.13,4,0,5.81-2.41,5.81-4.74,0-2.54-2.17-4.09-3.96-4.7Zm-3.7-5.76c0-.24.04-.33.2-.37.22-.04.41-.04.72-.04,1.87,0,2.72,1.91,2.72,3.37,0,1.07-.33,1.85-.89,2.3-.37.33-.85.41-1.57.41-.5,0-.83-.02-1.02-.07-.09-.02-.15-.06-.15-.24v-5.37Zm2.35,14.22c-.5,0-1-.02-1.59-.26-.7-.28-.76-.65-.76-2.09v-5.15c0-.11.04-.15.13-.15.33,0,.54,0,.93.02.85.04,1.35.2,1.81.52,1.65,1.15,2.11,2.98,2.11,4.33,0,2.26-1.65,2.78-2.63,2.78Z"/><path class="cls-1" d="m432.3,75.02c-.78,0-1.98.07-2.24.07-.06,0-1.28-.07-2.26-.07-.3,0-.41.07-.41.2s.11.2.33.2c.26.02.54.04.7.09.63.11.74.41.78,1.04.02.59.07,1.04.07,3.83v2.31c0,1.89-.02,3.61-1.09,4.61-.74.72-1.74.93-2.54.93-.61,0-1.46-.07-2.28-.7-.98-.74-1.5-1.85-1.5-4.52v-2.63c0-2.7,0-3.24.04-3.83.02-.63.17-.96.7-1.04.22-.04.37-.07.57-.09.2,0,.33-.07.33-.2s-.13-.2-.43-.2c-.67,0-2.09.07-2.5.07-.5,0-1.83-.07-2.8-.07-.3,0-.46.04-.46.17s.13.22.35.22c.26.02.61.04.78.09.59.13.72.41.76,1,.04.61.04,1.04.04,3.87v2.72c0,2.7.74,4.04,1.72,4.87,1.35,1.17,3.17,1.28,4.31,1.28,1.26,0,2.65-.22,3.98-1.3,1.65-1.35,1.85-3.54,1.85-5.61v-1.96c0-2.78.02-3.26.07-3.85.04-.65.17-.93.67-1.02.24-.07.35-.07.57-.09.24,0,.35-.07.35-.2s-.13-.2-.41-.2Z"/><path class="cls-1" d="m440.7,88.61c-.28-.02-.54-.02-.83-.09-.57-.07-.72-.46-.76-.96-.09-.78-.11-2.2-.11-3.94v-3.26c0-2.83,0-3.26.06-3.85.04-.63.2-.96.72-1.04.22-.04.3-.04.5-.07.2,0,.3-.07.3-.22,0-.11-.11-.17-.37-.17-.74,0-2.02.07-2.46.07-.48,0-1.78-.07-2.54-.07-.3,0-.43.07-.43.17,0,.15.11.22.3.22.24.02.48.04.67.09.41.09.61.39.65,1,.04.61.04,1.04.04,3.87v3.26c0,1.8,0,3.2-.11,3.98-.04.52-.22.85-.59.93-.17.04-.33.04-.59.07-.24,0-.33.11-.33.2,0,.13.13.2.39.2.76,0,2.07-.07,2.43-.07.46,0,1.7.07,2.98.07.22,0,.37-.07.37-.2,0-.09-.09-.2-.33-.2Z"/><path class="cls-1" d="m453.59,85.94c-.15,0-.17.17-.22.35-.07.46-.3.96-.57,1.2-.5.46-1.24.48-2.24.48-1.52,0-2-.13-2.3-.43-.39-.33-.39-1.61-.39-3.89v-3.22c0-2.87,0-3.28.04-3.87.04-.65.2-.96.72-1.04.24-.07.5-.07.72-.09.26,0,.37-.07.37-.2s-.11-.2-.41-.2c-.74,0-2.3.07-2.72.07-.57,0-1.74-.07-2.65-.07-.3,0-.46.07-.46.2s.13.2.35.2c.24.02.5.04.65.09.59.13.74.41.78,1.02.04.59.04,1.02.04,3.85v3.26c0,1.59,0,2.98-.09,3.74-.06.72-.2,1.07-.65,1.17-.15.04-.37.04-.61.07-.22.02-.33.11-.33.2,0,.13.15.2.41.2.89,0,1.7-.07,2.48-.07,2.04,0,3.81.11,5.74.11.96,0,1.04-.06,1.17-.5.15-.52.33-2,.33-2.24,0-.22-.02-.37-.17-.37Z"/><path class="cls-1" d="m461.49,75.02c-1.26,0-2.37.07-3,.07-.59,0-1.89-.07-2.8-.07-.28,0-.41.04-.41.17s.11.2.33.2l.74.06c.65.07.78.46.83,1.07.04.59.04,1.07.04,3.85v3.26c0,2.91.09,4.78-.65,4.91-.24.04-.46.07-.67.07s-.33.11-.33.2c0,.13.11.2.37.2.8,0,1.98-.07,2.5-.07.94,0,2.65.22,4.04.22,3.59,0,5.46-1.3,6.35-2.17,1.07-1.07,2.09-2.83,2.09-5.13s-.89-3.76-1.85-4.7c-2.04-2.04-5-2.13-7.57-2.13Zm5.13,11.85c-1.13.98-2.33,1.33-4.15,1.33-1.39,0-2.2-.37-2.41-.72-.2-.3-.22-.87-.24-1.39-.02-.35-.04-1.72-.04-3.67v-2.28c0-3.78.04-3.83.24-3.98.13-.11.83-.17,1.22-.17,1.43,0,3.5.26,5.15,1.87.83.83,1.78,2.28,1.78,4.5,0,1.89-.35,3.52-1.54,4.52Z"/><path class="cls-1" d="m479.46,88.61c-.28-.02-.54-.02-.83-.09-.57-.07-.72-.46-.76-.96-.09-.78-.11-2.2-.11-3.94v-3.26c0-2.83,0-3.26.06-3.85.04-.63.2-.96.72-1.04.22-.04.3-.04.5-.07.2,0,.3-.07.3-.22,0-.11-.11-.17-.37-.17-.74,0-2.02.07-2.46.07-.48,0-1.78-.07-2.54-.07-.3,0-.43.07-.43.17,0,.15.11.22.3.22.24.02.48.04.67.09.41.09.61.39.65,1,.04.61.04,1.04.04,3.87v3.26c0,1.8,0,3.2-.11,3.98-.04.52-.22.85-.59.93-.17.04-.33.04-.59.07-.24,0-.33.11-.33.2,0,.13.13.2.39.2.76,0,2.07-.07,2.43-.07.46,0,1.7.07,2.98.07.22,0,.37-.07.37-.2,0-.09-.09-.2-.33-.2Z"/><path class="cls-1" d="m497.57,75.02c-.91,0-1.7.07-1.93.07-.48,0-1.46-.07-2.41-.07-.26,0-.48.02-.48.17,0,.11.09.22.33.22.26.02.7.02.98.11.52.2.67.57.7,1.67l.17,8.04c-.35-.3-2.78-2.78-4.2-4.13-3.11-2.91-5.65-5.54-6-5.85-.33-.33-.5-.54-.7-.54-.22,0-.28.26-.28.67,0,2.43-.11,6.98-.15,10.89-.02,1.61-.11,2.09-.65,2.24-.26.07-.59.07-.83.09-.2,0-.3.09-.3.2,0,.17.17.2.41.2.93,0,1.94-.07,2.17-.07.5,0,1.26.07,2.39.07.26,0,.43-.07.43-.22,0-.11-.13-.17-.33-.17-.33-.02-.7-.02-1.02-.13-.39-.13-.61-.59-.65-2l-.2-7.54c.52.54,2.65,2.8,4.57,4.59,1.8,1.74,4.13,3.98,5.35,5.09.41.37.7.61.94.61.17,0,.28-.17.28-.67.07-3.87.11-8.72.2-11.5.02-1.04.2-1.41.76-1.57.2-.04.35-.04.54-.07.24,0,.33-.09.33-.2,0-.15-.17-.2-.41-.2Z"/><path class="cls-1" d="m515.19,82.07c-.72,0-1.76.04-2.37.04s-1.83-.04-2.87-.04c-.28,0-.41.04-.41.17,0,.11.13.2.3.2.28.02.57.04.74.06.65.09.83.44.85,1.15.02.59.02,1.24.02,2.13v1.57c0,.3-.07.54-.35.65-.41.22-1.04.22-1.5.22-4.04,0-6.48-3.04-6.48-6.87,0-2.2.63-3.52,1.65-4.39,1.24-1.07,2.61-1.2,3.74-1.2,2.24,0,3.78.87,4.31,1.59.46.5.52,1.02.59,1.41.02.15.04.26.2.26s.22-.09.22-.39c0-2.35.15-2.89.15-3.11,0-.13-.02-.24-.24-.26-.46-.02-1.13-.13-1.57-.2-.48-.11-2.04-.3-3.35-.3-1.57,0-3.35.13-5.22,1.2-1.74,1.02-3.35,3.07-3.35,6.04,0,5.07,4.09,7.24,8.92,7.24,1.52,0,3.41-.22,4.61-.8.24-.13.28-.17.28-.78v-1.89c0-.93,0-1.65.02-2.24.02-.63.17-.98.72-1.04.24-.02.28-.02.52-.04.15-.02.26-.09.26-.2,0-.13-.15-.17-.39-.17Z"/><path class="cls-1" d="m326.43,75.02c-.91,0-1.7.07-1.93.07-.48,0-1.46-.07-2.41-.07-.26,0-.48.02-.48.17,0,.11.09.22.33.22.26.02.7.02.98.11.52.2.67.57.7,1.67l.17,8.04c-.35-.3-2.78-2.78-4.2-4.13-3.11-2.91-5.65-5.54-6-5.85-.33-.33-.5-.54-.7-.54-.22,0-.28.26-.28.67,0,2.43-.11,6.98-.15,10.89,0,.54.01,1.11-.12,1.64-.12.47-.45.62-.93.66-.49.04-.99.04-1.48-.02-.35-.09-1.07-.17-2.11-1.28-1.13-1.15-2.48-2.87-4.09-4.87,1.89-1.41,2.54-2.65,2.54-4.04,0-1.26-.8-2.2-1.41-2.59-.98-.63-2.26-.76-3.57-.76-.65,0-2.2.07-2.78.07-.37,0-1.7-.07-2.67-.07-.28,0-.41.07-.41.2s.11.2.33.2c.24.02.5.04.74.09.59.11.76.39.8,1.04.04.59.04,1,.04,3.83v3.26c0,1.72,0,3.11-.11,3.87-.04.57-.17.96-.54,1.04-.17.04-.41.04-.7.07-.22,0-.3.11-.3.2,0,.13.13.2.37.2.76,0,2.09-.07,2.41-.07.28,0,1.8.07,2.96.07.24,0,.37-.09.37-.22,0-.09-.07-.17-.24-.17-.26-.02-.65-.02-.91-.09-.59-.07-.72-.48-.76-1.02-.09-.76-.09-2.04-.09-3.72v-.39c0-.11.06-.15.15-.15l1.54.04c.13,0,.24.02.3.11.28.33,1.09,1.48,1.87,2.57,1,1.37,1.72,2.22,2.48,2.63.54.28,1.09.41,2.35.41.9,0,1.8,0,2.7,0,.69,0,1.38-.06,2.07-.06.5,0,1.26.07,2.39.07.26,0,.43-.07.43-.22,0-.11-.13-.17-.33-.17-.33-.02-.7-.02-1.02-.13-.39-.13-.61-.59-.65-2l-.2-7.54c.52.54,2.65,2.8,4.57,4.59,1.8,1.74,4.13,3.98,5.35,5.09.41.37.7.61.94.61.17,0,.28-.17.28-.67.07-3.87.11-8.72.2-11.5.02-1.04.2-1.41.76-1.57.2-.04.35-.04.54-.07.24,0,.33-.09.33-.2,0-.15-.17-.2-.41-.2Zm-23.68,6.96c-.33.24-.63.33-1.33.33-.5,0-1.07-.07-1.46-.22-.13-.04-.17-.13-.17-.3v-5.46c0-.15.04-.22.15-.26.17-.07.52-.09.98-.09,1.09,0,2.89.7,2.89,3.33,0,1.48-.52,2.28-1.07,2.67Z"/></g></svg>